<svg width="128" height="20" viewBox="0 0 128 20" fill="none"
    xmlns="http://www.w3.org/2000/svg">
    <path d="M17.75 10.1917H14.85C14.0334 10.1917 13.3084 10.6417 12.9417 11.375L12.2417 12.7583C12.075 13.0917 11.7417 13.3 11.375 13.3H8.64169C8.38335 13.3 8.01669 13.2417 7.77502 12.7583L7.07502 11.3833C6.70835 10.6583 5.97502 10.2 5.16669 10.2H2.25002C1.92502 10.2 1.66669 10.4583 1.66669 10.7833V13.5C1.66669 16.525 3.48335 18.3333 6.51669 18.3333H13.5C16.3584 18.3333 18.1167 16.7667 18.3334 13.9833V10.775C18.3334 10.4583 18.075 10.1917 17.75 10.1917Z" fill="#A0AAB8"/>
    <path d="M10.625 1.66663C10.625 1.32496 10.3417 1.04163 10 1.04163C9.65833 1.04163 9.375 1.32496 9.375 1.66663V3.33329H10.625V1.66663Z" fill="#A0AAB8"/>
    <path d="M18.3334 8.17504V9.04171C18.15 8.97504 17.95 8.94171 17.75 8.94171H14.85C13.5584 8.94171 12.4 9.65837 11.825 10.8084L11.2 12.0417H8.81669L8.19169 10.8167C7.61669 9.65837 6.45835 8.94171 5.16669 8.94171H2.25002C2.05002 8.94171 1.85002 8.97504 1.66669 9.04171V8.17504C1.66669 5.14171 3.47502 3.33337 6.50835 3.33337H9.37502V5.99171L8.77502 5.39171C8.53335 5.15004 8.13335 5.15004 7.89169 5.39171C7.65002 5.63337 7.65002 6.03337 7.89169 6.27504L9.55835 7.94171C9.56669 7.95004 9.57502 7.95004 9.57502 7.95837C9.63335 8.00837 9.69169 8.05004 9.75835 8.07504C9.84169 8.10837 9.91669 8.12504 10 8.12504C10.0834 8.12504 10.1584 8.10837 10.2334 8.07504C10.3084 8.05004 10.3834 8.00004 10.4417 7.94171L12.1084 6.27504C12.35 6.03337 12.35 5.63337 12.1084 5.39171C11.8667 5.15004 11.4667 5.15004 11.225 5.39171L10.625 5.99171V3.33337H13.4917C16.525 3.33337 18.3334 5.14171 18.3334 8.17504Z" fill="#A0AAB8"/>
    <path d="M49.9583 2.96663V1.66663C49.9583 1.32496 49.675 1.04163 49.3333 1.04163C48.9917 1.04163 48.7083 1.32496 48.7083 1.66663V2.91663H43.2917V1.66663C43.2917 1.32496 43.0083 1.04163 42.6667 1.04163C42.325 1.04163 42.0417 1.32496 42.0417 1.66663V2.96663C39.7917 3.17496 38.7 4.51663 38.5333 6.50829C38.5167 6.74996 38.7167 6.94996 38.95 6.94996H53.05C53.2917 6.94996 53.4917 6.74163 53.4667 6.50829C53.3 4.51663 52.2083 3.17496 49.9583 2.96663Z" fill="#A0AAB8"/>
    <path d="M52.6667 8.19995H39.3333C38.875 8.19995 38.5 8.57495 38.5 9.03328V14.1666C38.5 16.6666 39.75 18.3333 42.6667 18.3333H49.3333C52.25 18.3333 53.5 16.6666 53.5 14.1666V9.03328C53.5 8.57495 53.125 8.19995 52.6667 8.19995ZM43.675 15.175C43.6333 15.2083 43.5917 15.25 43.55 15.275C43.5 15.3083 43.45 15.3333 43.4 15.35C43.35 15.375 43.3 15.3916 43.25 15.4C43.1917 15.4083 43.1417 15.4166 43.0833 15.4166C42.975 15.4166 42.8667 15.3916 42.7667 15.35C42.6583 15.3083 42.575 15.25 42.4917 15.175C42.3417 15.0166 42.25 14.8 42.25 14.5833C42.25 14.3666 42.3417 14.15 42.4917 13.9916C42.575 13.9166 42.6583 13.8583 42.7667 13.8166C42.9167 13.75 43.0833 13.7333 43.25 13.7666C43.3 13.775 43.35 13.7916 43.4 13.8166C43.45 13.8333 43.5 13.8583 43.55 13.8916C43.5917 13.925 43.6333 13.9583 43.675 13.9916C43.825 14.15 43.9167 14.3666 43.9167 14.5833C43.9167 14.8 43.825 15.0166 43.675 15.175ZM43.675 12.2583C43.5167 12.4083 43.3 12.5 43.0833 12.5C42.8667 12.5 42.65 12.4083 42.4917 12.2583C42.3417 12.1 42.25 11.8833 42.25 11.6666C42.25 11.45 42.3417 11.2333 42.4917 11.075C42.725 10.8416 43.0917 10.7666 43.4 10.9C43.5083 10.9416 43.6 11 43.675 11.075C43.825 11.2333 43.9167 11.45 43.9167 11.6666C43.9167 11.8833 43.825 12.1 43.675 12.2583ZM46.5917 15.175C46.4333 15.325 46.2167 15.4166 46 15.4166C45.7833 15.4166 45.5667 15.325 45.4083 15.175C45.2583 15.0166 45.1667 14.8 45.1667 14.5833C45.1667 14.3666 45.2583 14.15 45.4083 13.9916C45.7167 13.6833 46.2833 13.6833 46.5917 13.9916C46.7417 14.15 46.8333 14.3666 46.8333 14.5833C46.8333 14.8 46.7417 15.0166 46.5917 15.175ZM46.5917 12.2583C46.55 12.2916 46.5083 12.325 46.4667 12.3583C46.4167 12.3916 46.3667 12.4166 46.3167 12.4333C46.2667 12.4583 46.2167 12.475 46.1667 12.4833C46.1083 12.4916 46.0583 12.5 46 12.5C45.7833 12.5 45.5667 12.4083 45.4083 12.2583C45.2583 12.1 45.1667 11.8833 45.1667 11.6666C45.1667 11.45 45.2583 11.2333 45.4083 11.075C45.4833 11 45.575 10.9416 45.6833 10.9C45.9917 10.7666 46.3583 10.8416 46.5917 11.075C46.7417 11.2333 46.8333 11.45 46.8333 11.6666C46.8333 11.8833 46.7417 12.1 46.5917 12.2583ZM49.5083 15.175C49.35 15.325 49.1333 15.4166 48.9167 15.4166C48.7 15.4166 48.4833 15.325 48.325 15.175C48.175 15.0166 48.0833 14.8 48.0833 14.5833C48.0833 14.3666 48.175 14.15 48.325 13.9916C48.6333 13.6833 49.2 13.6833 49.5083 13.9916C49.6583 14.15 49.75 14.3666 49.75 14.5833C49.75 14.8 49.6583 15.0166 49.5083 15.175ZM49.5083 12.2583C49.4667 12.2916 49.425 12.325 49.3833 12.3583C49.3333 12.3916 49.2833 12.4166 49.2333 12.4333C49.1833 12.4583 49.1333 12.475 49.0833 12.4833C49.025 12.4916 48.9667 12.5 48.9167 12.5C48.7 12.5 48.4833 12.4083 48.325 12.2583C48.175 12.1 48.0833 11.8833 48.0833 11.6666C48.0833 11.45 48.175 11.2333 48.325 11.075C48.4083 11 48.4917 10.9416 48.6 10.9C48.75 10.8333 48.9167 10.8166 49.0833 10.85C49.1333 10.8583 49.1833 10.875 49.2333 10.9C49.2833 10.9166 49.3333 10.9416 49.3833 10.975C49.425 11.0083 49.4667 11.0416 49.5083 11.075C49.6583 11.2333 49.75 11.45 49.75 11.6666C49.75 11.8833 49.6583 12.1 49.5083 12.2583Z" fill="#A0AAB8"/>
    <path d="M82 1.66663C77.4084 1.66663 73.6667 5.40829 73.6667 9.99996C73.6667 14.5916 77.4084 18.3333 82 18.3333C86.5917 18.3333 90.3334 14.5916 90.3334 9.99996C90.3334 5.40829 86.5917 1.66663 82 1.66663ZM85.625 12.975C85.5084 13.175 85.3 13.2833 85.0834 13.2833C84.975 13.2833 84.8667 13.2583 84.7667 13.1916L82.1834 11.65C81.5417 11.2666 81.0667 10.425 81.0667 9.68329V6.26663C81.0667 5.92496 81.35 5.64163 81.6917 5.64163C82.0334 5.64163 82.3167 5.92496 82.3167 6.26663V9.68329C82.3167 9.98329 82.5667 10.425 82.825 10.575L85.4084 12.1166C85.7084 12.2916 85.8084 12.675 85.625 12.975Z" fill="#A0AAB8"/>
    <path d="M123.017 10.275L122 9.25829C121.758 9.04996 121.617 8.74163 121.608 8.39996C121.592 8.02496 121.742 7.64996 122.017 7.37496L123.017 6.37496C123.883 5.50829 124.208 4.67496 123.933 4.01663C123.667 3.36663 122.842 3.00829 121.625 3.00829H112.917V2.29163C112.917 1.94996 112.633 1.66663 112.292 1.66663C111.95 1.66663 111.667 1.94996 111.667 2.29163V17.7083C111.667 18.05 111.95 18.3333 112.292 18.3333C112.633 18.3333 112.917 18.05 112.917 17.7083V13.6416H121.625C122.825 13.6416 123.633 13.275 123.908 12.6166C124.183 11.9583 123.867 11.1333 123.017 10.275Z" fill="#A0AAB8"/>
</svg>
