<svg width="46" height="46" viewBox="0 0 46 46" fill="none"
    xmlns="http://www.w3.org/2000/svg">
    <path d="M37.6669 36.2732H20.585C19.7375 36.2732 19.0407 35.5764 19.0407 34.7289C19.0407 33.8814 19.7375 33.1846 20.585 33.1846H37.6669C38.5144 33.1846 39.2112 33.8814 39.2112 34.7289C39.2112 35.5952 38.5144 36.2732 37.6669 36.2732Z" fill="white"/>
    <path d="M37.6669 24.427H20.585C19.7375 24.427 19.0407 23.7302 19.0407 22.8827C19.0407 22.0352 19.7375 21.3384 20.585 21.3384H37.6669C38.5144 21.3384 39.2112 22.0352 39.2112 22.8827C39.2112 23.7302 38.5144 24.427 37.6669 24.427Z" fill="white"/>
    <path d="M37.6669 12.5623H20.585C19.7375 12.5623 19.0407 11.8655 19.0407 11.018C19.0407 10.1705 19.7375 9.47363 20.585 9.47363H37.6669C38.5144 9.47363 39.2112 10.1705 39.2112 11.018C39.2112 11.8655 38.5144 12.5623 37.6669 12.5623Z" fill="white"/>
    <path d="M9.24715 15.123C8.83282 15.123 8.43732 14.9535 8.15482 14.671L6.44098 12.9571C5.83832 12.3545 5.83832 11.3751 6.44098 10.7725C7.04365 10.1698 8.02298 10.1698 8.62565 10.7725L9.24715 11.394L13.2775 7.36362C13.8802 6.76095 14.8595 6.76095 15.4622 7.36362C16.0648 7.96629 16.0648 8.94562 15.4622 9.54829L10.3395 14.671C10.0382 14.9535 9.66148 15.123 9.24715 15.123Z" fill="white"/>
    <path d="M9.24715 26.9887C8.85165 26.9887 8.45615 26.838 8.15482 26.5367L6.44098 24.8228C5.83832 24.2202 5.83832 23.2408 6.44098 22.6382C7.04365 22.0355 8.02298 22.0355 8.62565 22.6382L9.24715 23.2597L13.2775 19.2293C13.8802 18.6267 14.8595 18.6267 15.4622 19.2293C16.0648 19.832 16.0648 20.8113 15.4622 21.414L10.3395 26.5367C10.0382 26.838 9.64265 26.9887 9.24715 26.9887Z" fill="white"/>
    <path d="M9.24715 38.2885C8.85165 38.2885 8.45615 38.1378 8.15482 37.8365L6.44098 36.1227C5.83832 35.52 5.83832 34.5407 6.44098 33.938C7.04365 33.3353 8.02298 33.3353 8.62565 33.938L9.24715 34.5595L13.2775 30.5291C13.8802 29.9265 14.8595 29.9265 15.4622 30.5291C16.0648 31.1318 16.0648 32.1112 15.4622 32.7138L10.3395 37.8365C10.0382 38.1378 9.64265 38.2885 9.24715 38.2885Z" fill="white"/>
</svg>
