<svg width="20" height="21" viewBox="0 0 20 21" fill="none"
    xmlns="http://www.w3.org/2000/svg">
    <path d="M15.8333 11.3859C16.2936 11.3859 16.6667 11.0128 16.6667 10.5526C16.6667 10.0923 16.2936 9.71924 15.8333 9.71924C15.3731 9.71924 15 10.0923 15 10.5526C15 11.0128 15.3731 11.3859 15.8333 11.3859Z" stroke="#767E8C" stroke-width="1.5" stroke-linecap="round" stroke-linejoin="round"/>
    <path d="M9.99996 11.3859C10.4602 11.3859 10.8333 11.0128 10.8333 10.5526C10.8333 10.0923 10.4602 9.71924 9.99996 9.71924C9.53972 9.71924 9.16663 10.0923 9.16663 10.5526C9.16663 11.0128 9.53972 11.3859 9.99996 11.3859Z" stroke="#767E8C" stroke-width="1.5" stroke-linecap="round" stroke-linejoin="round"/>
    <path d="M4.16671 11.3859C4.62694 11.3859 5.00004 11.0128 5.00004 10.5526C5.00004 10.0923 4.62694 9.71924 4.16671 9.71924C3.70647 9.71924 3.33337 10.0923 3.33337 10.5526C3.33337 11.0128 3.70647 11.3859 4.16671 11.3859Z" stroke="#767E8C" stroke-width="1.5" stroke-linecap="round" stroke-linejoin="round"/>
</svg>
